# xmcd
#
# Track frame offsets: 
#        150
#        12522
#        26638
#        39750
#        48055
#        59922
#        71723
#        81712
#        95149
#        104584
#        117210
#        126706
#        137228
#        145799
#        156415
#        165515
#        176265
#        187501
#        199141
#        209421
#        220450
#        231609
#        243197
#        255186
#        266872
#        276139
#        286741
#        300485
#        311188
#
# Disc length: 4289 seconds
#
# Revision: 0
# Processed by: cddbd v1.5.2PL0 Copyright (c) Steve Scherf et al.
# Submitted via: ExactAudioCopy v1.0b3
#
DISCID=bb10bf1d
DTITLE=Tennessee Ernie Ford - Portrate Of An American Singer_CD2
DYEAR=2015
DGENRE=Country
TTITLE0=She's My Baby
TTITLE1=Mister And Mississippi
TTITLE2=Christmas Dinner
TTITLE3=A Rootin' Tootin' Santa Claus
TTITLE4=Oceans Of Tears
TTITLE5=You're My Sugar
TTITLE6=Rock City Boogie
TTITLE7=Streamlined Cannonball
TTITLE8=Kissin' Bug Boogie
TTITLE9=Woman Is A Five Letter Word
TTITLE10=Hey, Good Lookin' 
TTITLE11=Cool, Cool Kisses
TTITLE12=Hambone 
TTITLE13=The Gandy Dancer's Ball
TTITLE14=Everybody's Got A Girl But Me
TTITLE15=Fatback, Louisiana, USA
TTITLE16=Snow Shoe Thompson
TTITLE17=I'm Hog Tied Over You
TTITLE18=False Hearted Girl
TTITLE19=Tennessee Local 
TTITLE20=Blackberry Boogie
TTITLE21=I Don't Know 
TTITLE22=Sweet Temptation
TTITLE23=Don't Start Courtin' In A Hot Rod
TTITLE24=We're A' Growin' Up
TTITLE25=Hey ! Mr. Cotton Picker
TTITLE26=Three Things (A Man Should Do)
TTITLE27=Celebratin'
TTITLE28=Kiss Me Big
EXTD=
EXTT0=
EXTT1=
EXTT2=
EXTT3=
EXTT4=
EXTT5=
EXTT6=
EXTT7=
EXTT8=
EXTT9=
EXTT10=
EXTT11=
EXTT12=
EXTT13=
EXTT14=
EXTT15=
EXTT16=
EXTT17=
EXTT18=
EXTT19=
EXTT20=
EXTT21=
EXTT22=
EXTT23=
EXTT24=
EXTT25=
EXTT26=
EXTT27=
EXTT28=
PLAYORDER=
